<mxfile host="Electron" modified="2023-10-03T08:35:42.749Z" agent="Mozilla/5.0 (Windows NT 10.0; Win64; x64) AppleWebKit/537.36 (KHTML, like Gecko) draw.io/22.0.1 Chrome/114.0.5735.289 Electron/25.8.4 Safari/537.36" etag="NsU_buo2Wry2Kuq3AnvF" version="22.0.1" type="device">
  <diagram name="Page-1" id="7PSu10kznuT-4xMovICj">
    <mxGraphModel dx="1091" dy="638" grid="1" gridSize="10" guides="1" tooltips="1" connect="1" arrows="1" fold="1" page="1" pageScale="1" pageWidth="827" pageHeight="1169" math="0" shadow="0">
      <root>
        <mxCell id="0" />
        <mxCell id="1" parent="0" />
        <mxCell id="YJO97rTtVCJoyXt66hXt-29" value="" style="ellipse;whiteSpace=wrap;html=1;fillColor=#f0a30a;fontColor=#000000;strokeColor=#BD7000;opacity=30;" vertex="1" parent="1">
          <mxGeometry x="325" y="110" width="130" height="160" as="geometry" />
        </mxCell>
        <mxCell id="YJO97rTtVCJoyXt66hXt-24" value="" style="ellipse;whiteSpace=wrap;html=1;fillColor=#60a917;fontColor=#ffffff;strokeColor=#2D7600;opacity=30;" vertex="1" parent="1">
          <mxGeometry x="85" y="370" width="310" height="230" as="geometry" />
        </mxCell>
        <mxCell id="YJO97rTtVCJoyXt66hXt-27" value="" style="ellipse;whiteSpace=wrap;html=1;fillColor=#d80073;fontColor=#ffffff;strokeColor=#A50040;opacity=30;" vertex="1" parent="1">
          <mxGeometry x="320" y="240" width="140" height="220" as="geometry" />
        </mxCell>
        <mxCell id="YJO97rTtVCJoyXt66hXt-26" value="" style="ellipse;whiteSpace=wrap;html=1;fillColor=#1ba1e2;fontColor=#ffffff;strokeColor=#006EAF;opacity=30;" vertex="1" parent="1">
          <mxGeometry x="355" y="370" width="310" height="230" as="geometry" />
        </mxCell>
        <mxCell id="YJO97rTtVCJoyXt66hXt-1" value="IPI" style="ellipse;shape=cloud;whiteSpace=wrap;html=1;fillColor=#a20025;fontColor=#ffffff;strokeColor=#6F0000;" vertex="1" parent="1">
          <mxGeometry x="330" y="10" width="120" height="80" as="geometry" />
        </mxCell>
        <mxCell id="YJO97rTtVCJoyXt66hXt-2" value="" style="image;html=1;image=img/lib/clip_art/computers/Laptop_128x128.png" vertex="1" parent="1">
          <mxGeometry x="350" y="110" width="80" height="80" as="geometry" />
        </mxCell>
        <mxCell id="YJO97rTtVCJoyXt66hXt-3" value="" style="endArrow=classic;startArrow=classic;html=1;rounded=0;exitX=0.5;exitY=0;exitDx=0;exitDy=0;" edge="1" parent="1" source="YJO97rTtVCJoyXt66hXt-2">
          <mxGeometry width="50" height="50" relative="1" as="geometry">
            <mxPoint x="330" y="340" as="sourcePoint" />
            <mxPoint x="390" y="90" as="targetPoint" />
          </mxGeometry>
        </mxCell>
        <mxCell id="YJO97rTtVCJoyXt66hXt-5" value="HÃ´te" style="text;html=1;strokeColor=none;fillColor=none;align=center;verticalAlign=middle;whiteSpace=wrap;rounded=0;" vertex="1" parent="1">
          <mxGeometry x="280" y="130" width="60" height="30" as="geometry" />
        </mxCell>
        <mxCell id="YJO97rTtVCJoyXt66hXt-6" value="" style="image;html=1;image=img/lib/clip_art/networking/Router_Icon_128x128.png" vertex="1" parent="1">
          <mxGeometry x="350" y="240" width="80" height="80" as="geometry" />
        </mxCell>
        <mxCell id="YJO97rTtVCJoyXt66hXt-7" value="" style="endArrow=classic;startArrow=classic;html=1;rounded=0;exitX=0.5;exitY=0;exitDx=0;exitDy=0;entryX=0.5;entryY=1;entryDx=0;entryDy=0;" edge="1" parent="1" source="YJO97rTtVCJoyXt66hXt-6" target="YJO97rTtVCJoyXt66hXt-2">
          <mxGeometry width="50" height="50" relative="1" as="geometry">
            <mxPoint x="330" y="340" as="sourcePoint" />
            <mxPoint x="380" y="290" as="targetPoint" />
          </mxGeometry>
        </mxCell>
        <mxCell id="YJO97rTtVCJoyXt66hXt-8" value="VM-RAC1" style="text;html=1;strokeColor=none;fillColor=none;align=center;verticalAlign=middle;whiteSpace=wrap;rounded=0;" vertex="1" parent="1">
          <mxGeometry x="280" y="265" width="60" height="30" as="geometry" />
        </mxCell>
        <mxCell id="YJO97rTtVCJoyXt66hXt-9" value="" style="image;html=1;image=img/lib/clip_art/networking/Firewall_02_128x128.png" vertex="1" parent="1">
          <mxGeometry x="350" y="370" width="80" height="80" as="geometry" />
        </mxCell>
        <mxCell id="YJO97rTtVCJoyXt66hXt-10" value="" style="endArrow=classic;startArrow=classic;html=1;rounded=0;exitX=0.5;exitY=0;exitDx=0;exitDy=0;entryX=0.5;entryY=1;entryDx=0;entryDy=0;" edge="1" parent="1" source="YJO97rTtVCJoyXt66hXt-27" target="YJO97rTtVCJoyXt66hXt-6">
          <mxGeometry width="50" height="50" relative="1" as="geometry">
            <mxPoint x="330" y="340" as="sourcePoint" />
            <mxPoint x="380" y="290" as="targetPoint" />
          </mxGeometry>
        </mxCell>
        <mxCell id="YJO97rTtVCJoyXt66hXt-11" value="VM-FWAC1" style="text;html=1;strokeColor=none;fillColor=none;align=center;verticalAlign=middle;whiteSpace=wrap;rounded=0;" vertex="1" parent="1">
          <mxGeometry x="355" y="450" width="70" height="30" as="geometry" />
        </mxCell>
        <mxCell id="YJO97rTtVCJoyXt66hXt-12" value="" style="image;html=1;image=img/lib/clip_art/computers/Server_128x128.png" vertex="1" parent="1">
          <mxGeometry x="147.5" y="470" width="80" height="80" as="geometry" />
        </mxCell>
        <mxCell id="YJO97rTtVCJoyXt66hXt-13" value="" style="image;html=1;image=img/lib/clip_art/computers/Server_128x128.png" vertex="1" parent="1">
          <mxGeometry x="560" y="470" width="80" height="80" as="geometry" />
        </mxCell>
        <mxCell id="YJO97rTtVCJoyXt66hXt-14" value="VM-SRVAC1" style="text;html=1;strokeColor=none;fillColor=none;align=center;verticalAlign=middle;whiteSpace=wrap;rounded=0;" vertex="1" parent="1">
          <mxGeometry x="140" y="550" width="95" height="30" as="geometry" />
        </mxCell>
        <mxCell id="YJO97rTtVCJoyXt66hXt-15" value="VM-SRVAC2" style="text;html=1;strokeColor=none;fillColor=none;align=center;verticalAlign=middle;whiteSpace=wrap;rounded=0;" vertex="1" parent="1">
          <mxGeometry x="552.5" y="550" width="95" height="30" as="geometry" />
        </mxCell>
        <mxCell id="YJO97rTtVCJoyXt66hXt-16" value="" style="endArrow=classic;startArrow=classic;html=1;rounded=0;entryX=0;entryY=1;entryDx=0;entryDy=0;" edge="1" parent="1" source="YJO97rTtVCJoyXt66hXt-12" target="YJO97rTtVCJoyXt66hXt-9">
          <mxGeometry width="50" height="50" relative="1" as="geometry">
            <mxPoint x="330" y="340" as="sourcePoint" />
            <mxPoint x="380" y="290" as="targetPoint" />
          </mxGeometry>
        </mxCell>
        <mxCell id="YJO97rTtVCJoyXt66hXt-17" value="" style="endArrow=classic;startArrow=classic;html=1;rounded=0;exitX=0;exitY=0.25;exitDx=0;exitDy=0;entryX=1;entryY=1;entryDx=0;entryDy=0;" edge="1" parent="1" source="YJO97rTtVCJoyXt66hXt-13" target="YJO97rTtVCJoyXt66hXt-9">
          <mxGeometry width="50" height="50" relative="1" as="geometry">
            <mxPoint x="330" y="340" as="sourcePoint" />
            <mxPoint x="380" y="290" as="targetPoint" />
          </mxGeometry>
        </mxCell>
        <mxCell id="YJO97rTtVCJoyXt66hXt-18" value="ens33 172.16.0.132/24" style="text;html=1;strokeColor=none;fillColor=none;align=center;verticalAlign=middle;whiteSpace=wrap;rounded=0;" vertex="1" parent="1">
          <mxGeometry x="395" y="220" width="140" height="30" as="geometry" />
        </mxCell>
        <mxCell id="YJO97rTtVCJoyXt66hXt-19" value="ens36 10.0.0.1/30" style="text;html=1;strokeColor=none;fillColor=none;align=center;verticalAlign=middle;whiteSpace=wrap;rounded=0;" vertex="1" parent="1">
          <mxGeometry x="400" y="295" width="110" height="30" as="geometry" />
        </mxCell>
        <mxCell id="YJO97rTtVCJoyXt66hXt-20" value="ens33 10.0.0.2/30" style="text;html=1;strokeColor=none;fillColor=none;align=center;verticalAlign=middle;whiteSpace=wrap;rounded=0;" vertex="1" parent="1">
          <mxGeometry x="400" y="340" width="110" height="30" as="geometry" />
        </mxCell>
        <mxCell id="YJO97rTtVCJoyXt66hXt-21" value="ens36 10.10.0.1/24" style="text;html=1;strokeColor=none;fillColor=none;align=center;verticalAlign=middle;whiteSpace=wrap;rounded=0;" vertex="1" parent="1">
          <mxGeometry x="240" y="410" width="110" height="30" as="geometry" />
        </mxCell>
        <mxCell id="YJO97rTtVCJoyXt66hXt-22" value="ens33 192.168.21.5/24" style="text;html=1;strokeColor=none;fillColor=none;align=center;verticalAlign=middle;whiteSpace=wrap;rounded=0;" vertex="1" parent="1">
          <mxGeometry x="414" y="500" width="140" height="30" as="geometry" />
        </mxCell>
        <mxCell id="YJO97rTtVCJoyXt66hXt-23" value="ens33 10.10.0.5/24" style="text;html=1;strokeColor=none;fillColor=none;align=center;verticalAlign=middle;whiteSpace=wrap;rounded=0;" vertex="1" parent="1">
          <mxGeometry x="227.5" y="500" width="110" height="30" as="geometry" />
        </mxCell>
        <mxCell id="YJO97rTtVCJoyXt66hXt-28" value="" style="endArrow=classic;startArrow=classic;html=1;rounded=0;exitX=0.5;exitY=0;exitDx=0;exitDy=0;entryX=0.5;entryY=1;entryDx=0;entryDy=0;" edge="1" parent="1" source="YJO97rTtVCJoyXt66hXt-9" target="YJO97rTtVCJoyXt66hXt-27">
          <mxGeometry width="50" height="50" relative="1" as="geometry">
            <mxPoint x="390" y="370" as="sourcePoint" />
            <mxPoint x="390" y="320" as="targetPoint" />
          </mxGeometry>
        </mxCell>
        <mxCell id="YJO97rTtVCJoyXt66hXt-30" value="VmNet3" style="text;html=1;strokeColor=none;fillColor=none;align=center;verticalAlign=middle;whiteSpace=wrap;rounded=0;" vertex="1" parent="1">
          <mxGeometry x="130" y="400" width="60" height="30" as="geometry" />
        </mxCell>
        <mxCell id="YJO97rTtVCJoyXt66hXt-31" value="VmNet4" style="text;html=1;strokeColor=none;fillColor=none;align=center;verticalAlign=middle;whiteSpace=wrap;rounded=0;" vertex="1" parent="1">
          <mxGeometry x="560" y="400" width="60" height="30" as="geometry" />
        </mxCell>
        <mxCell id="YJO97rTtVCJoyXt66hXt-32" value="VmNet2" style="text;html=1;strokeColor=none;fillColor=none;align=center;verticalAlign=middle;whiteSpace=wrap;rounded=0;" vertex="1" parent="1">
          <mxGeometry x="310" y="320" width="60" height="30" as="geometry" />
        </mxCell>
        <mxCell id="YJO97rTtVCJoyXt66hXt-33" value="NAT" style="text;html=1;strokeColor=none;fillColor=none;align=center;verticalAlign=middle;whiteSpace=wrap;rounded=0;" vertex="1" parent="1">
          <mxGeometry x="310" y="180" width="60" height="30" as="geometry" />
        </mxCell>
      </root>
    </mxGraphModel>
  </diagram>
</mxfile>
